<?xml version="1.0" encoding="utf-8"?>
<!-- Generator: Adobe Illustrator 15.0.0, SVG Export Plug-In  -->
<!DOCTYPE svg PUBLIC "-//W3C//DTD SVG 1.1//EN" "http://www.w3.org/Graphics/SVG/1.1/DTD/svg11.dtd" [
	<!ENTITY ns_flows "http://ns.adobe.com/Flows/1.0/">
]>
<svg version="1.1"
	 xmlns="http://www.w3.org/2000/svg" xmlns:xlink="http://www.w3.org/1999/xlink" xmlns:a="http://ns.adobe.com/AdobeSVGViewerExtensions/3.0/"
	 x="0px" y="0px" width="300px" height="300px" viewBox="482 199.75 300 300"
	 overflow="visible" enable-background="new 482 199.75 300 300" xml:space="preserve">
<defs>
</defs>
<g>
	<defs>
		<rect id="SVGID_1_" x="10" width="1244" height="699.75"/>
	</defs>
	<clipPath id="SVGID_4_">
		<use xlink:href="#SVGID_1_"  overflow="visible"/>
	</clipPath>
	<g clip-path="url(#SVGID_4_)">
		<defs>
			<rect id="SVGID_2_" y="44" width="1244" height="699.75"/>
		</defs>
		<clipPath id="SVGID_5_">
			<use xlink:href="#SVGID_2_"  overflow="visible"/>
		</clipPath>
		<path clip-path="url(#SVGID_5_)" fill="#E8F1F9" d="M767.472,350.866c0,70.416-57.084,127.5-127.5,127.5
			c-70.417,0-127.5-57.084-127.5-127.5s57.084-127.5,127.5-127.5C710.388,223.366,767.472,280.45,767.472,350.866"/>
		<path clip-path="url(#SVGID_5_)" fill="#FFFFFF" d="M734.021,375.311c0,0-0.013-0.001-0.02-0.001
			c-2.492,0-4.513,4.952-4.513,11.063c0,6.11,2.021,11.063,4.513,11.063c0.007,0,0.013-0.001,0.013-0.001
			c2.148-3.155,3.4-6.962,3.4-11.062S736.162,378.465,734.021,375.311"/>
		<path clip-path="url(#SVGID_5_)" fill="none" stroke="#296AB3" stroke-miterlimit="10" d="M734.021,375.311
			c0,0-0.013-0.001-0.02-0.001c-2.492,0-4.513,4.952-4.513,11.063c0,6.11,2.021,11.063,4.513,11.063
			c0.007,0,0.013-0.001,0.013-0.001c2.148-3.155,3.4-6.962,3.4-11.062S736.162,378.465,734.021,375.311z"/>
		<path clip-path="url(#SVGID_5_)" fill="#296AB3" d="M735.586,378.062c-0.015-0.01-0.048-0.071-0.062-0.08
			c-1.433,0.029-2.55,3.779-2.55,8.391s1.113,8.35,2.545,8.378c0.015-0.008,0.027-0.015,0.041-0.024
			c1.23-2.386,1.994-5.258,1.994-8.354S736.815,380.448,735.586,378.062"/>
		<path clip-path="url(#SVGID_5_)" fill="none" stroke="#296AB3" stroke-miterlimit="10" d="M735.586,378.062
			c-0.015-0.01-0.048-0.071-0.062-0.08c-1.433,0.029-2.55,3.779-2.55,8.391s1.113,8.35,2.545,8.378
			c0.015-0.008,0.027-0.015,0.041-0.024c1.23-2.386,1.994-5.258,1.994-8.354S736.815,380.448,735.586,378.062z"/>
		<path clip-path="url(#SVGID_5_)" fill="#FFFFFF" d="M673.711,390.967c1.506,0.185,3.01,0.405,4.491,0.73
			c0.843,0.186,1.701,0.582,2.537,0.702c3.126,0.448,6.236-1.916,8.819-3.29c2.621-1.395,5.447-2.588,8.406-2.79
			c0.028-10.869,8.848-19.673,19.724-19.673c6.794,0,12.785,3.437,16.332,8.664c0,0-0.013-0.002-0.021-0.002
			c-2.491,0-4.512,4.953-4.512,11.064c0,6.11,2.021,11.063,4.512,11.063c0.008,0,0.015-0.001,0.015-0.001
			c-3.541,5.228-9.532,8.663-16.326,8.663c-8.145,0-15.135-4.938-18.146-11.981c-2.942-0.1-5.343,1.343-7.916,2.755
			c-3.014,1.653-6.112,3.103-9.594,3.32c-2.675,0.168-5.279-0.925-7.907-1.355c-0.056-0.009-0.393-0.059-0.612-0.093
			c-0.24-0.027-0.701-0.084-0.768-0.09c-0.818-0.085-1.642-0.146-2.465-0.175c-1.186-0.043-2.375-0.029-3.558,0.063
			c-0.015,0.002-0.028,0.004-0.042,0.007l-5.143,1.266c0,0-14.351,3.26-24.835-2.356c-10.482-5.617-13.945-9.734-22.09-11.139
			c0,0-5.335-0.844-8.985-4.398l11.232-8.705c0,0,22.464,15.162,29.578,16.474c5.35,0.985,12.66,0.594,15.955,0.34
			c1.21-0.095,2.424-0.075,3.629,0.062L673.711,390.967z"/>
		<path clip-path="url(#SVGID_5_)" fill="none" stroke="#296AB3" stroke-miterlimit="10" d="M673.711,390.967
			c1.506,0.185,3.01,0.405,4.491,0.73c0.843,0.186,1.701,0.582,2.537,0.702c3.126,0.448,6.236-1.916,8.819-3.29
			c2.621-1.395,5.447-2.588,8.406-2.79c0.028-10.869,8.848-19.673,19.724-19.673c6.794,0,12.785,3.437,16.332,8.664
			c0,0-0.013-0.002-0.021-0.002c-2.491,0-4.512,4.953-4.512,11.064c0,6.11,2.021,11.063,4.512,11.063
			c0.008,0,0.015-0.001,0.015-0.001c-3.541,5.228-9.532,8.663-16.326,8.663c-8.145,0-15.135-4.938-18.146-11.981
			c-2.942-0.1-5.343,1.343-7.916,2.755c-3.014,1.653-6.112,3.103-9.594,3.32c-2.675,0.168-5.279-0.925-7.907-1.355
			c-0.056-0.009-0.393-0.059-0.612-0.093c-0.24-0.027-0.701-0.084-0.768-0.09c-0.818-0.085-1.642-0.146-2.465-0.175
			c-1.186-0.043-2.375-0.029-3.558,0.063c-0.015,0.002-0.028,0.004-0.042,0.007l-5.143,1.266c0,0-14.351,3.26-24.835-2.356
			c-10.482-5.617-13.945-9.734-22.09-11.139c0,0-5.335-0.844-8.985-4.398l11.232-8.705c0,0,22.464,15.162,29.578,16.474
			c5.35,0.985,12.66,0.594,15.955,0.34c1.21-0.095,2.424-0.075,3.629,0.062L673.711,390.967z"/>
		<g opacity="0.71" clip-path="url(#SVGID_5_)">
			<g>
				<defs>
					<rect id="SVGID_3_" x="695.354" y="364.35" width="47.456" height="44.475"/>
				</defs>
				<clipPath id="SVGID_6_">
					<use xlink:href="#SVGID_3_"  overflow="visible"/>
				</clipPath>
				
					<path clip-path="url(#SVGID_6_)" fill="none" stroke="#C8DBF0" stroke-width="2" stroke-linecap="round" stroke-miterlimit="10" d="
					M698.348,395.494c2.063,4.286,5.094,7.047,6.068,7.864c0.194,0.164,0.401,0.311,0.62,0.441c1.388,0.83,7.229,4.119,12.544,4.021
					c7.415-0.136,13.933-3.917,17.753-9.542l0.059-0.109c0.013,0,0.026-0.001,0.038-0.002c4.027-3.302,6.381-7.287,6.381-11.58
					c0-4.291-2.354-8.277-6.381-11.58c-0.012,0-0.025,0-0.038,0l-0.203-0.295c-3.817-5.648-10.279-9.363-17.608-9.363
					c0,0-14.597-0.428-19.93,14.215c-0.781,2.145-1.182,4.177-1.296,6.084"/>
			</g>
		</g>
		<path clip-path="url(#SVGID_5_)" fill="none" stroke="#E8F1F9" stroke-linecap="round" stroke-miterlimit="10" d="
			M725.123,381.992c0,0-4.038-0.461-3.923,2.77c0.059,1.615-1.049,2.618-2.17,3.217c-1.237,0.661-2.67,0.866-4.058,0.663
			c-2.323-0.338-4.201-1.264-5.377-1.987c-1.478-0.91-3.28-1.162-4.932-0.633c-3.26,1.047-6.619,3.543-6.619,3.543
			c-2.556,1.047-4.659,2.902-7.668,3.795c-2.856,0.85-5.575,2.272-8.55,2.471c-3.277,0.217-6.512-0.73-9.785-1.019
			c-5.682-0.501-14.558-0.909-19.706,1.805c0,0-8.236,1.592-15.725-5.054c0,0-14.228-10.017-19.563-10.765
			c0,0-4.118-0.281-6.459-2.06"/>
		<path clip-path="url(#SVGID_5_)" fill="none" stroke="#E8F1F9" stroke-linecap="round" stroke-miterlimit="10" d="
			M724.675,393.021c0,0-2.012,6.04-7.901,5.864c-2.989-0.09-4.891-0.947-6.04-1.772c-0.757-0.542-1.325-1.29-1.763-2.112
			c-0.472-0.883-1.31-1.764-2.267-2.572c-3.756-3.17-9.12-3.635-13.404-1.225l-0.078,0.045c-0.651,0.366-1.205,0.869-1.718,1.412
			c-2.075,2.203-6.662,3.459-8.411,3.872c-0.434,0.104-0.873,0.186-1.318,0.196c-3.754,0.091-8.171-2.592-8.171-2.592
			c-2.075-0.838-4.35-0.746-6.101-0.446c-1.598,0.272-2.803,1.488-4.331,2.033c-7.746,2.765-15.234-2.29-15.234-2.29
			s-11.299-4.762-18.534-5.518c-1.182-0.123-2.339-0.39-3.429-0.863c-3.646-1.584-11.625-5.409-13.7-9.344"/>
		<path clip-path="url(#SVGID_5_)" fill="none" stroke="#E8F1F9" stroke-linecap="round" stroke-miterlimit="10" d="
			M723.929,384.277c0,0-1.846,0.346-2.308-0.924"/>
		<path clip-path="url(#SVGID_5_)" fill="none" stroke="#E8F1F9" stroke-linecap="round" stroke-miterlimit="10" d="
			M707.562,385.801c0.771-2.494,3.104-4.427,5.698-4.721c1.643-0.188,3.292,0.232,4.945,0.258c0.523,0.008,1.072-0.031,1.516-0.309
			c0.877-0.549,0.996-1.762,0.972-2.797c-0.007-0.334-0.016-0.682,0.13-0.979c0.14-0.282,0.401-0.485,0.673-0.644
			c1.104-0.645,2.523-0.715,3.686-0.183"/>
		<path clip-path="url(#SVGID_5_)" fill="none" stroke="#E8F1F9" stroke-linecap="round" stroke-miterlimit="10" d="
			M722.021,376.317c-0.526-0.728-0.594-1.71-0.375-2.581c0.218-0.87,0.691-1.652,1.177-2.408"/>
		<path clip-path="url(#SVGID_5_)" fill="none" stroke="#E8F1F9" stroke-linecap="round" stroke-miterlimit="10" d="
			M709.837,396.174c1.359-1.761,3.772-2.637,5.944-2.156c0.879,0.193,1.72,0.59,2.62,0.627c0.898,0.039,1.928-0.439,2.086-1.326"/>
		<path clip-path="url(#SVGID_5_)" fill="none" stroke="#E8F1F9" stroke-linecap="round" stroke-miterlimit="10" d="
			M713.863,398.609c0.42,1.44,1.67,2.532,3.068,3.077c1.396,0.545,2.934,0.613,4.434,0.556"/>
		<path clip-path="url(#SVGID_5_)" fill="none" stroke="#E8F1F9" stroke-linecap="round" stroke-miterlimit="10" d="
			M723.705,395.012c0.487,0.161,0.98,0.323,1.491,0.361c0.512,0.037,1.052-0.062,1.456-0.379"/>
		<path clip-path="url(#SVGID_5_)" fill="none" stroke="#E8F1F9" stroke-linecap="round" stroke-miterlimit="10" d="
			M701.283,387.453c0.797-0.236,1.338-0.961,1.759-1.677c0.808-1.375,1.388-2.884,1.71-4.445c0.231-1.122,0.336-2.287,0.798-3.335
			c0.393-0.893,1.03-1.658,1.75-2.316c0.876-0.799,1.928-1.469,3.104-1.621c0.708-0.094,1.427,0.006,2.141-0.019
			c0.713-0.024,1.47-0.196,1.959-0.717c0.489-0.519,0.565-1.461,0.005-1.903"/>
		<path clip-path="url(#SVGID_5_)" fill="none" stroke="#E8F1F9" stroke-linecap="round" stroke-miterlimit="10" d="
			M713.352,373.992c0.176,0.438,0.461,0.851,0.875,1.074c0.415,0.223,0.74,0.386,1.194,0.508"/>
		<path clip-path="url(#SVGID_5_)" fill="none" stroke="#E8F1F9" stroke-linecap="round" stroke-miterlimit="10" d="M704.89,391.221
			c0,0-0.763,1.617-0.368,3.453c0.281,1.317,1.25,2.364,2.475,2.924c0.771,0.354,1.756,1.047,1.853,2.308"/>
		<path clip-path="url(#SVGID_5_)" fill="none" stroke="#E8F1F9" stroke-linecap="round" stroke-miterlimit="10" d="
			M721.554,375.001c0,0-1.305-0.373-1.025-2.61"/>
		<path clip-path="url(#SVGID_5_)" fill="none" stroke="#E8F1F9" stroke-linecap="round" stroke-miterlimit="10" d="
			M716.332,373.727c0,0-0.123-0.559-1.181,0.155c0,0-0.528,0.467-1.057-0.187"/>
		<path clip-path="url(#SVGID_5_)" fill="none" stroke="#E8F1F9" stroke-linecap="round" stroke-miterlimit="10" d="M713.435,381.18
			c0,0-0.179,2.188,2.946,2.678c0,0,1.875,0.045,1.786,1.295"/>
		<path clip-path="url(#SVGID_5_)" fill="none" stroke="#E8F1F9" stroke-linecap="round" stroke-miterlimit="10" d="
			M715.801,383.725c0,0-0.18,0.937,0.089,1.428c0,0,0.67,0.715,0.09,1.518"/>
		<path clip-path="url(#SVGID_5_)" fill="none" stroke="#E8F1F9" stroke-linecap="round" stroke-miterlimit="10" d="
			M720.769,377.264c0,0,0.296,1.567,2.622,1.264c0,0,0.869-0.271,1.229,0.297"/>
		<path clip-path="url(#SVGID_5_)" fill="none" stroke="#E8F1F9" stroke-linecap="round" stroke-miterlimit="10" d="M715.294,388.76
			c0,0,0.602,1.806,2.769,1.926c0,0,2.589,0.061,2.589,1.023"/>
		<path clip-path="url(#SVGID_5_)" fill="none" stroke="#E8F1F9" stroke-linecap="round" stroke-miterlimit="10" d="
			M716.678,381.175c0,0-1.203-2.528,1.145-2.649c0,0,1.324-0.421,1.083-1.384"/>
		<path clip-path="url(#SVGID_5_)" fill="#FFFFFF" d="M695.107,357.921c0,0,0.483,2.901-14.18,15.8c0,0-17.82,10.2-31.563-4.552
			c0,0-9.437,12.261-22.617,10.24c0,0-1.458,13.768-18.854,20.28c0,0-14.562,8.3-25.238-2.864c0,0-22.762,15.017-38.495-1.437
			c0,0-13.944-19.287,0.694-31.035c0,0-16.342-12.557-6.236-29.64c0.321-0.543,0.631-1.088,0.896-1.66
			c1.416-3.065,7.962-15.036,22.479-11.465c0.634,0.157,1.123-0.556,0.721-1.071c-3.972-5.08-13.236-20.727,6.954-37.264
			c0,0,10.5-6.666,21.278-0.1c0,0,3.169-13.155,21.025-14.481c0,0,12.619,1.433,15.964,6.108c0,0,38.172-22.86,52.172,1.14
			c0,0,38-17,50,25c0,0,11,31-12,37C718.107,337.921,714.107,365.921,695.107,357.921"/>
		
			<path clip-path="url(#SVGID_5_)" fill="none" stroke="#296AB3" stroke-width="2.5" stroke-linecap="round" stroke-miterlimit="10" d="
			M695.107,357.921c0,0,0.483,2.901-14.18,15.8c0,0-17.82,10.2-31.563-4.552c0,0-9.437,12.261-22.617,10.24
			c0,0-1.458,13.768-18.854,20.28c0,0-14.562,8.3-25.238-2.864c0,0-22.762,15.017-38.495-1.437c0,0-13.944-19.287,0.694-31.035
			c0,0-16.342-12.557-6.236-29.64c0.321-0.543,0.631-1.088,0.896-1.66c1.416-3.065,7.962-15.036,22.479-11.465
			c0.634,0.157,1.123-0.556,0.721-1.071c-3.972-5.08-13.236-20.727,6.954-37.264c0,0,10.5-6.666,21.278-0.1
			c0,0,3.169-13.155,21.025-14.481c0,0,12.619,1.433,15.964,6.108c0,0,38.172-22.86,52.172,1.14c0,0,38-17,50,25c0,0,11,31-12,37
			C718.107,337.921,714.107,365.921,695.107,357.921z"/>
		
			<path clip-path="url(#SVGID_5_)" fill="none" stroke="#296AB3" stroke-width="2" stroke-linecap="round" stroke-miterlimit="10" d="
			M648.959,273.238c0,0,3.039,5.531-0.499,9.477"/>
		<path clip-path="url(#SVGID_5_)" fill="none" stroke="#C8DBF0" stroke-linecap="round" stroke-miterlimit="10" d="
			M641.107,324.921c0,0-7.34,8.822-13.409,2.004c-3.034-3.408-7.251-3.295-10.708-2.329c-3.814,1.065-7.136,3.444-9.574,6.565
			c-4.079,5.223-6.107,10.778-7.093,14.551c-1.239,4.737-4.425,8.771-8.829,10.911c-8.696,4.227-14.928,4.791-14.928,4.791
			s-20.13,4.37-28.113,3.146"/>
		<path clip-path="url(#SVGID_5_)" fill="none" stroke="#C8DBF0" stroke-linecap="round" stroke-miterlimit="10" d="
			M634.213,322.592c0,0-4.443,2.896-2.908,6.387"/>
		<path clip-path="url(#SVGID_5_)" fill="none" stroke="#C8DBF0" stroke-linecap="round" stroke-miterlimit="10" d="M699.703,272.85
			c0,0-8.604,5.609-5.632,12.369"/>
		<path clip-path="url(#SVGID_5_)" fill="none" stroke="#C8DBF0" stroke-linecap="round" stroke-miterlimit="10" d="
			M584.678,353.297c0,0-4.443,2.896-2.908,6.387"/>
		<path clip-path="url(#SVGID_5_)" fill="none" stroke="#C8DBF0" stroke-linecap="round" stroke-miterlimit="10" d="
			M597.837,351.421c6.439,3.585,14.976,2.976,20.842-1.485c3.716-2.826,6.264-6.899,9.588-10.178
			c1.052-1.037,2.249-2.029,3.694-2.327c2.862-0.592,5.472,1.654,7.442,3.811c0.634,0.693,1.294,1.422,2.177,1.745
			c0.835,0.306,1.765,0.206,2.628-0.001c3.51-0.839,6.543-3.464,7.876-6.817"/>
		<path clip-path="url(#SVGID_5_)" fill="none" stroke="#C8DBF0" stroke-linecap="round" stroke-miterlimit="10" d="
			M644.944,343.425c0.343,2.511,2.125,4.649,4.271,5.999c2.145,1.35,4.638,2.023,7.102,2.617"/>
		<path clip-path="url(#SVGID_5_)" fill="none" stroke="#C8DBF0" stroke-linecap="round" stroke-miterlimit="10" d="
			M591.719,356.034c-1.955-3.759-1.533-8.425,0.255-12.265"/>
		<path clip-path="url(#SVGID_5_)" fill="none" stroke="#C8DBF0" stroke-linecap="round" stroke-miterlimit="10" d="
			M581.802,360.301c2.341-1.201,5.175-0.721,7.71,0.002c4.871,1.391,9.515,3.586,13.685,6.467c2.996,2.072,5.793,4.52,9.155,5.916
			c2.86,1.189,6.005,1.557,9.097,1.49c3.763-0.082,7.645-0.849,10.674-3.072c1.824-1.338,3.253-3.137,4.939-4.644
			c1.687-1.508,3.799-2.768,6.062-2.646c2.263,0.121,4.507,2.119,4.192,4.363"/>
		<path clip-path="url(#SVGID_5_)" fill="none" stroke="#C8DBF0" stroke-linecap="round" stroke-miterlimit="10" d="
			M636.362,366.838c-1.325-0.102-2.684-0.517-3.636-1.442c-0.953-0.927-1.672-1.664-2.387-2.784"/>
		<path clip-path="url(#SVGID_5_)" fill="none" stroke="#C8DBF0" stroke-linecap="round" stroke-miterlimit="10" d="
			M647.701,355.867c0,0,1.792,2.961-5.803,4.251c0,0-4.252,0.171-3.834,5.224"/>
		<path clip-path="url(#SVGID_5_)" fill="none" stroke="#C8DBF0" stroke-linecap="round" stroke-miterlimit="10" d="
			M597.226,378.661c0,0-0.726-3.974,8.094-2.229c0,0,4.708,1.579,6.35-4.107"/>
		<path clip-path="url(#SVGID_5_)" fill="none" stroke="#C8DBF0" stroke-linecap="round" stroke-miterlimit="10" d="
			M618.841,349.391c0,0-4.633-4.115,0.786-11.214c0,0,3.738-3.75,1.117-6.126"/>
		<path clip-path="url(#SVGID_5_)" fill="none" stroke="#C8DBF0" stroke-linecap="round" stroke-miterlimit="10" d="
			M617.177,343.743c0,0-3.918-2.794-4.653-5.517c0,0-0.049-4.937-4.964-5.843"/>
		<path clip-path="url(#SVGID_5_)" fill="none" stroke="#C8DBF0" stroke-linecap="round" stroke-miterlimit="10" d="
			M613.914,373.596c0,0,0.067,0.88-0.279,2.826c-0.308,1.725-1.138,3.3-2.29,4.617c-1.087,1.244-2.649,3.818-0.991,7.176"/>
		<path clip-path="url(#SVGID_5_)" fill="none" stroke="#C8DBF0" stroke-linecap="round" stroke-miterlimit="10" d="
			M641.448,343.069c0,0-2.455-3.776,2.884-7.697c0,0,2.303-1.143,1.933-3.001"/>
		<path clip-path="url(#SVGID_5_)" fill="none" stroke="#C8DBF0" stroke-linecap="round" stroke-miterlimit="10" d="
			M624.197,344.288c0,0,4.062,12.318,12.308,5.205c0,0,5.782-2.829,8.059,1.166"/>
		<path clip-path="url(#SVGID_5_)" fill="none" stroke="#C8DBF0" stroke-linecap="round" stroke-miterlimit="10" d="
			M605.397,282.674c0,0,5.879,6.367,10.19,0.989c2.156-2.689,5.34-2.767,7.985-2.174c2.918,0.655,5.517,2.32,7.477,4.579
			c3.279,3.78,5.024,7.89,5.916,10.697c1.119,3.524,3.679,6.443,7.083,7.885c6.723,2.849,11.444,3.032,11.444,3.032
			s7.467-5.593,4.777-12.03c0,0-2.862-5.042,0.529-7.782"/>
		<path clip-path="url(#SVGID_5_)" fill="none" stroke="#C8DBF0" stroke-linecap="round" stroke-miterlimit="10" d="M649.06,301.876
			c0,0,3.463,2.011,2.441,4.703"/>
		<path clip-path="url(#SVGID_5_)" fill="none" stroke="#C8DBF0" stroke-linecap="round" stroke-miterlimit="10" d="
			M639.062,300.974c-4.717,2.954-11.178,2.828-15.775-0.308c-2.914-1.987-4.992-4.96-7.627-7.303
			c-0.833-0.741-1.775-1.442-2.877-1.611c-2.181-0.334-4.061,1.461-5.464,3.164c-0.451,0.548-0.921,1.123-1.574,1.401
			c-0.618,0.263-1.322,0.224-1.982,0.102c-2.68-0.496-5.069-2.358-6.205-4.835"/>
		<path clip-path="url(#SVGID_5_)" fill="none" stroke="#C8DBF0" stroke-linecap="round" stroke-miterlimit="10" d="
			M645.285,295.824c-0.739-4.685,1.437-9.707,5.36-12.371c1.588-1.079,3.435-1.803,4.812-3.14c1.378-1.337,2.141-3.632,0.999-5.175"
			/>
		<path clip-path="url(#SVGID_5_)" fill="none" stroke="#C8DBF0" stroke-linecap="round" stroke-miterlimit="10" d="
			M639.019,288.753c1.328-2.91,3.337-7.651,1.839-10.478c-1.498-2.826-3.77-5.088-7.459-7.143"/>
		<path clip-path="url(#SVGID_5_)" fill="none" stroke="#C8DBF0" stroke-linecap="round" stroke-miterlimit="10" d="M721.67,301.712
			c-1.791-0.86-3.818-0.51-5.609,0.016c-3.442,1.01-6.66,2.599-9.483,4.684c-2.028,1.498-3.885,3.266-6.228,4.279
			c-1.994,0.862-4.255,1.132-6.51,1.089c-2.744-0.052-5.622-0.598-7.99-2.194c-1.424-0.961-2.595-2.255-3.932-3.339
			c-1.338-1.083-2.967-1.987-4.604-1.896c-1.637,0.092-3.124,1.536-2.73,3.151"/>
		<path clip-path="url(#SVGID_5_)" fill="none" stroke="#C8DBF0" stroke-linecap="round" stroke-miterlimit="10" d="
			M686.482,323.467c0.786-0.624,1.461-1.457,1.666-2.44c0.205-0.982,0.344-1.746,0.317-2.75"/>
		<path clip-path="url(#SVGID_5_)" fill="none" stroke="#C8DBF0" stroke-linecap="round" stroke-miterlimit="10" d="M593.63,336.053
			c0.767-2.252,1.044-4.778,0.192-7c-0.851-2.222-1.556-3.921-2.895-5.889"/>
		<path clip-path="url(#SVGID_5_)" fill="none" stroke="#C8DBF0" stroke-linecap="round" stroke-miterlimit="10" d="
			M707.902,333.234c0,0-3.492,1.535-7.383,0.593c-2.792-0.676-4.97-2.797-6.095-5.44"/>
		<path clip-path="url(#SVGID_5_)" fill="none" stroke="#C8DBF0" stroke-linecap="round" stroke-miterlimit="10" d="
			M572.418,308.277c0,0-1.052,2.836,7.697,3.861c0,0,4.865-0.056,4.686,5.74"/>
		<path clip-path="url(#SVGID_5_)" fill="none" stroke="#C8DBF0" stroke-linecap="round" stroke-miterlimit="10" d="M560.43,361.084
			c0,0,4.216-4.248-0.471-10.059c0,0-3.258-2.97-0.872-5.418"/>
		<path clip-path="url(#SVGID_5_)" fill="none" stroke="#C8DBF0" stroke-linecap="round" stroke-miterlimit="10" d="
			M621.295,317.058c0,0,1.593-1.265,1.844-2.431c0,0-0.087-2.086,1.969-2.575"/>
		<path clip-path="url(#SVGID_5_)" fill="none" stroke="#C8DBF0" stroke-linecap="round" stroke-miterlimit="10" d="
			M586.312,292.417c0,0,0.779-5.469-7.185-7.071c0,0-1.982-0.012-2.529-2.271"/>
		<path clip-path="url(#SVGID_5_)" fill="none" stroke="#C8DBF0" stroke-linecap="round" stroke-miterlimit="10" d="
			M630.693,285.432c0,0,1.542-3.755-1.79-6.966"/>
		<path clip-path="url(#SVGID_5_)" fill="none" stroke="#C8DBF0" stroke-linecap="round" stroke-miterlimit="10" d="
			M667.896,278.112c-1.819,0.572-3.66,1.149-5.564,1.261c-1.902,0.112-3.905-0.286-5.39-1.483"/>
		<path clip-path="url(#SVGID_5_)" fill="none" stroke="#C8DBF0" stroke-linecap="round" stroke-miterlimit="10" d="
			M685.012,309.448c0,0-2.035,7.809,5.661,10.15c1.022,0.311,2.01,0.716,2.918,1.278c3.593,2.224,15.212,9.421,15.78,15.837"/>
		<path clip-path="url(#SVGID_5_)" fill="none" stroke="#C8DBF0" stroke-linecap="round" stroke-miterlimit="10" d="
			M676.434,325.596c0,0-2.035,7.809,5.662,10.15c1.021,0.31,2.009,0.716,2.917,1.278c3.593,2.224,15.212,9.421,15.78,15.837"/>
		<path clip-path="url(#SVGID_5_)" fill="none" stroke="#C8DBF0" stroke-linecap="round" stroke-miterlimit="10" d="
			M563.188,318.109c-2.165-1.565,5.699-14.6,25.756-10.958c2.465,0.448,5.023-0.406,7.272-1.509c2.573-1.263,5.294-3.39,5.885-6.851
			"/>
		
			<path clip-path="url(#SVGID_5_)" fill="none" stroke="#296AB3" stroke-width="2" stroke-linecap="round" stroke-miterlimit="10" d="
			M548.477,342.784c0,0-0.8,16.197,17.362,20.546"/>
		
			<path clip-path="url(#SVGID_5_)" fill="none" stroke="#296AB3" stroke-width="2" stroke-linecap="round" stroke-miterlimit="10" d="
			M603.119,319.57c-3.002,4.874-3.342,11.281-0.872,16.445c2.47,5.164,7.671,8.921,13.35,9.644
			c5.678,0.722,11.654-1.614,15.338-5.996"/>
		
			<path clip-path="url(#SVGID_5_)" fill="none" stroke="#296AB3" stroke-width="2" stroke-linecap="round" stroke-miterlimit="10" d="
			M606.267,368.459c0,0,3.087-8.414,11.363-5.642"/>
		
			<path clip-path="url(#SVGID_5_)" fill="none" stroke="#296AB3" stroke-width="2" stroke-linecap="round" stroke-miterlimit="10" d="
			M618.078,355.639c0,0-1.943,9.732,3.996,14.179"/>
		
			<path clip-path="url(#SVGID_5_)" fill="none" stroke="#296AB3" stroke-width="2" stroke-linecap="round" stroke-miterlimit="10" d="
			M601.043,333.12c0,0-12.973,9.807-20.352-1.327c-1.1-1.66-2.655-3.024-4.539-3.668c-3.029-1.034-7.329-0.613-10.526,7.366"/>
		
			<path clip-path="url(#SVGID_5_)" fill="none" stroke="#296AB3" stroke-width="2" stroke-linecap="round" stroke-miterlimit="10" d="
			M554.814,381.826c0,0,5.857,3.873,13.226-0.805c1.544-0.98,2.876-2.252,4.083-3.627c2.442-2.783,9.953-9.408,19.577,0.656"/>
		
			<path clip-path="url(#SVGID_5_)" fill="none" stroke="#296AB3" stroke-width="2" stroke-linecap="round" stroke-miterlimit="10" d="
			M581.331,372.5c0,0-11.005-9.303-1.09-18.785"/>
		
			<path clip-path="url(#SVGID_5_)" fill="none" stroke="#296AB3" stroke-width="2" stroke-linecap="round" stroke-miterlimit="10" d="
			M617.478,327.809c0,0,0.347-15.518,14.792-15.411c0,0,9.043,0.634,10.289-6.886"/>
		
			<path clip-path="url(#SVGID_5_)" fill="none" stroke="#296AB3" stroke-width="2" stroke-linecap="round" stroke-miterlimit="10" d="
			M644.34,319.387c2.317,1.649,4.869,3.061,7.661,3.611c4.641,0.914,9.637-0.754,13.029-4.049c3.395-3.295,5.194-8.079,5.149-12.809
			"/>
		
			<path clip-path="url(#SVGID_5_)" fill="none" stroke="#296AB3" stroke-width="2" stroke-linecap="round" stroke-miterlimit="10" d="
			M656.743,323.727c0,0,9.156,14.868-6.326,25.735"/>
		
			<path clip-path="url(#SVGID_5_)" fill="none" stroke="#296AB3" stroke-width="2" stroke-linecap="round" stroke-miterlimit="10" d="
			M717.714,317.16c-2.804-0.48-5.716-0.645-8.469,0.071c-4.578,1.191-8.355,4.861-9.983,9.302"/>
		
			<path clip-path="url(#SVGID_5_)" fill="none" stroke="#296AB3" stroke-width="2" stroke-linecap="round" stroke-miterlimit="10" d="
			M704.655,318.632c0,0-8.708-7.582-5.468-25.931"/>
		
			<path clip-path="url(#SVGID_5_)" fill="none" stroke="#296AB3" stroke-width="2" stroke-linecap="round" stroke-miterlimit="10" d="
			M662.179,363.525c0,0,0.757,0.018,1.926-0.088c7.771-0.695,13.809-7.527,13.023-15.288c-0.145-1.418-0.527-2.774-1.293-3.87
			c0,0-10.382-11.445,2.161-19.502"/>
		
			<path clip-path="url(#SVGID_5_)" fill="none" stroke="#296AB3" stroke-width="2" stroke-linecap="round" stroke-miterlimit="10" d="
			M672.285,334.406c0,0,5.083,4.139,10.358-0.344"/>
		
			<path clip-path="url(#SVGID_5_)" fill="none" stroke="#296AB3" stroke-width="2" stroke-linecap="round" stroke-miterlimit="10" d="
			M672.285,290.253c0,0,8.314,6.77,16.944-0.562"/>
		
			<path clip-path="url(#SVGID_5_)" fill="none" stroke="#296AB3" stroke-width="2" stroke-linecap="round" stroke-miterlimit="10" d="
			M619.452,302.754c3.16-6.95,9.379-12.69,16.853-14.257c7.472-1.566,15.979,1.601,19.793,8.215"/>
		
			<path clip-path="url(#SVGID_5_)" fill="none" stroke="#296AB3" stroke-width="2" stroke-linecap="round" stroke-miterlimit="10" d="
			M630.108,290.739c-3.521-3.837-7.544-7.389-12.393-9.288c-4.85-1.9-10.665-1.917-14.994,0.979"/>
		
			<path clip-path="url(#SVGID_5_)" fill="none" stroke="#296AB3" stroke-width="2" stroke-linecap="round" stroke-miterlimit="10" d="
			M563.341,292.327c0,0,8.786,12.513,23.106,7.48c0,0,18.354-7.427,22.93,5.591"/>
		
			<path clip-path="url(#SVGID_5_)" fill="none" stroke="#296AB3" stroke-width="2.5" stroke-linecap="round" stroke-miterlimit="10" d="
			M695.107,357.921c0,0,0.483,2.901-14.18,15.8c0,0-17.82,10.2-31.563-4.552c0,0-9.437,12.261-22.617,10.24
			c0,0-1.458,13.768-18.854,20.28c0,0-14.562,8.3-25.238-2.864c0,0-22.762,15.017-38.495-1.437c0,0-13.944-19.287,0.694-31.035
			c0,0-16.342-12.557-6.236-29.64c0.321-0.543,0.631-1.088,0.896-1.66c1.416-3.065,7.962-15.036,22.479-11.465
			c0.634,0.157,1.123-0.556,0.721-1.071c-3.972-5.08-13.236-20.727,6.954-37.264c0,0,10.5-6.666,21.278-0.1
			c0,0,3.169-13.155,21.025-14.481c0,0,12.619,1.433,15.964,6.108c0,0,38.172-22.86,52.172,1.14c0,0,38-17,50,25c0,0,11,31-12,37
			C718.107,337.921,714.107,365.921,695.107,357.921z"/>
	</g>
</g>
</svg>
